HIERARCHY
ROOT Hips
{
	OFFSET 56.877701 -32.693596 43.373703
	CHANNELS 6 Xposition Yposition Zposition Zrotation Xrotation Yrotation
	JOINT Chest
	{
		OFFSET -0.779999 1.005800 5.403099
		CHANNELS 6 Xposition Yposition Zposition Zrotation Xrotation Yrotation
		JOINT Chest2
		{
			OFFSET 0.000000 0.000000 4.236801
			CHANNELS 6 Xposition Yposition Zposition Zrotation Xrotation Yrotation
			JOINT Neck
			{
				OFFSET 0.000000 0.000000 9.874401
				CHANNELS 6 Xposition Yposition Zposition Zrotation Xrotation Yrotation
				JOINT Head
				{
					OFFSET 0.000000 0.000002 2.173893
					CHANNELS 6 Xposition Yposition Zposition Zrotation Xrotation Yrotation
					End Site
					{
						OFFSET 0.000000 0.000000 6.508102
					}
				}
			}
			JOINT LeftCollar
			{
				OFFSET 2.681599 -0.377600 5.432499
				CHANNELS 6 Xposition Yposition Zposition Zrotation Xrotation Yrotation
				JOINT LeftShoulder
				{
					OFFSET 5.161499 0.000000 0.000000
					CHANNELS 6 Xposition Yposition Zposition Zrotation Xrotation Yrotation
					JOINT LeftElbow
					{
						OFFSET 0.000000 0.000000 -10.869099
						CHANNELS 6 Xposition Yposition Zposition Zrotation Xrotation Yrotation
						JOINT LeftWrist
						{
							OFFSET 0.000000 0.000000 -13.344799
							CHANNELS 6 Xposition Yposition Zposition Zrotation Xrotation Yrotation
							End Site
							{
								OFFSET 0.000000 0.000000 -2.173901
							}
						}
					}
				}
			}
			JOINT RightCollar
			{
				OFFSET -2.381901 -1.419600 6.136600
				CHANNELS 6 Xposition Yposition Zposition Zrotation Xrotation Yrotation
				JOINT RightShoulder
				{
					OFFSET -4.550499 0.000000 0.000000
					CHANNELS 6 Xposition Yposition Zposition Zrotation Xrotation Yrotation
					JOINT RightElbow
					{
						OFFSET 0.000000 0.000000 -11.106499
						CHANNELS 6 Xposition Yposition Zposition Zrotation Xrotation Yrotation
						JOINT RightWrist
						{
							OFFSET 0.000000 0.000000 -12.874298
							CHANNELS 6 Xposition Yposition Zposition Zrotation Xrotation Yrotation
							End Site
							{
								OFFSET 0.000000 0.000000 -2.173901
							}
						}
					}
				}
			}
		}
	}
	JOINT LeftHip
	{
		OFFSET 2.431900 0.469601 -2.489399
		CHANNELS 6 Xposition Yposition Zposition Zrotation Xrotation Yrotation
		JOINT LeftKnee
		{
			OFFSET 0.000000 -0.000004 -18.200201
			CHANNELS 6 Xposition Yposition Zposition Zrotation Xrotation Yrotation
			JOINT LeftAnkle
			{
				OFFSET 0.000000 0.000000 -16.279900
				CHANNELS 6 Xposition Yposition Zposition Zrotation Xrotation Yrotation
				End Site
				{
					OFFSET 0.000000 -8.394100 0.000000
				}
			}
		}
	}
	JOINT RightHip
	{
		OFFSET -1.987999 -0.073502 -2.713001
		CHANNELS 6 Xposition Yposition Zposition Zrotation Xrotation Yrotation
		JOINT RightKnee
		{
			OFFSET 0.000000 -0.000004 -19.547802
			CHANNELS 6 Xposition Yposition Zposition Zrotation Xrotation Yrotation
			JOINT RightAnkle
			{
				OFFSET 0.000000 0.000000 -14.881199
				CHANNELS 6 Xposition Yposition Zposition Zrotation Xrotation Yrotation
				End Site
				{
					OFFSET 0.000000 -7.922699 0.000000
				}
			}
		}
	}
}
MOTION
Frames: 7
Frame Time: 0.041667
-18.877914 -51.811897 37.732903 4680.000595 17.949346 -0.000130 -0.779997 1.005800 5.403097 0.048689 1.955059 -0.486779 0.000006 0.000004 4.236798 -3.212418 -5.329393 -1.154729 0.000005 -0.000002 9.874403 5.178486 -26.092759 3.993432 -0.000003 0.000004 2.173891 -0.126967 -2.905283 1.131006 2.681603 -0.377605 5.432497 -15.069344 7.377100 6.803522 5.161499 -0.000005 0.000011 233.670552 -138.795263 165.552365 -0.000006 0.000010 -10.869104 -310.570669 -11.810184 -343.565373 -0.000001 -0.000004 -13.344799 -79.638223 3.212123 -86.155453 -2.381889 -1.419601 6.136593 15.541090 9.537609 -8.325652 -4.550512 0.000006 0.000000 -1294.960153 -502.050924 -497.607695 0.000005 -0.000010 -11.106504 675.174800 -41.953508 691.929582 -0.000004 -0.000003 -12.874300 -316.528615 1.794317 -35.566369 2.431900 0.469601 -2.489395 -307.686334 -46.754393 41.923957 0.000009 0.000007 -18.200203 239.137600 41.874117 83.382184 -0.000004 -0.000002 -16.279902 44.156094 7.834286 9.909637 -1.987999 -0.073502 -2.713009 -68.031157 -37.811951 -51.346394 -0.000004 -0.000006 -19.547802 -1301.884217 80.471137 -454.952016 -0.000004 0.000000 -14.881197 1958.126934 167.882853 -517.193945
-18.866699 -51.757393 37.666908 4679.628158 18.020974 0.092319 -0.779993 1.005798 5.403097 0.404292 2.183357 -0.492367 -0.000000 -0.000004 4.236805 -3.170948 -5.221402 -1.127476 -0.000002 -0.000006 9.874395 5.173923 -25.772423 4.078106 -0.000005 0.000006 2.173900 -0.078201 -2.892687 0.989788 2.681597 -0.377601 5.432502 -15.359808 7.400694 6.962241 5.161501 -0.000001 0.000004 233.147578 -139.489538 166.359748 0.000003 0.000010 -10.869099 -310.814151 -11.591919 -343.905817 0.000007 0.000002 -13.344795 -78.594611 2.934455 -85.950868 -2.381899 -1.419603 6.136592 15.850286 9.546692 -8.390432 -4.550505 0.000006 0.000002 -1295.335759 -502.610672 -499.068481 0.000006 -0.000008 -11.106499 675.681491 -40.889050 692.605006 0.000002 0.000009 -12.874297 -316.153174 -1.874669 -25.831188 2.431908 0.469600 -2.489399 -307.176502 -46.932211 42.300608 0.000003 -0.000005 -18.200195 238.873217 41.738248 83.713811 0.000000 -0.000001 -16.279900 44.354818 7.812790 10.070165 -1.987994 -0.073503 -2.713001 -68.299474 -37.778050 -51.928685 -0.000001 -0.000010 -19.547800 -1299.252791 79.674348 -457.164806 -0.000003 0.000002 -14.881197 1957.786408 167.951770 -517.591462
-18.852798 -51.694893 37.595802 4679.588379 18.066446 0.102500 -0.780003 1.005800 5.403096 0.443878 2.442011 -0.510381 -0.000001 0.000000 4.236797 -3.009647 -5.102612 -1.211980 -0.000001 0.000000 9.874402 5.127480 -25.391612 4.335261 0.000001 0.000009 2.173901 -0.090068 -2.846924 0.963933 2.681601 -0.377601 5.432507 -15.761672 7.425555 7.217504 5.161495 -0.000001 0.000012 232.666952 -140.133393 167.183169 0.000008 0.000013 -10.869101 -311.123231 -11.410834 -344.237327 -0.000003 0.000003 -13.344800 -77.413446 2.618887 -85.699429 -2.381896 -1.419603 6.136596 16.063529 9.586258 -8.336646 -4.550506 -0.000000 0.000000 -1295.589405 -503.242765 -500.446048 0.000005 0.000002 -11.106497 676.053709 -39.995139 693.371353 0.000003 0.000000 -12.874289 -313.427409 -6.968112 -8.964333 2.431901 0.469599 -2.489399 -306.965695 -47.120854 42.712943 0.000002 0.000001 -18.200197 238.577743 41.655620 84.091254 -0.000010 0.000000 -16.279903 44.555465 7.853346 10.157494 -1.987997 -0.073492 -2.713001 -68.814354 -37.777657 -52.491831 0.000002 -0.000002 -19.547806 -1296.904298 78.918417 -459.188864 -0.000002 0.000001 -14.881206 1957.479542 168.013337 -518.019360
-18.834305 -51.629791 37.531700 4679.613733 18.142132 0.096481 -0.779989 1.005804 5.403096 0.418963 2.663780 -0.505157 0.000001 -0.000003 4.236809 -2.977475 -5.009296 -1.176462 -0.000002 0.000000 9.874391 5.120978 -24.924134 4.395314 0.000002 0.000006 2.173896 -0.121116 -2.701602 0.885104 2.681594 -0.377597 5.432498 -15.978570 7.419722 7.310143 5.161503 0.000001 -0.000001 232.165561 -140.637543 168.031123 -0.000001 0.000010 -10.869094 -310.997255 -11.070963 -344.685114 -0.000001 0.000000 -13.344800 -76.748746 2.277993 -85.629487 -2.381900 -1.419595 6.136590 16.390683 9.609913 -8.281189 -4.550507 0.000006 -0.000017 -1295.897037 -503.874967 -501.949400 0.000006 -0.000004 -11.106497 675.989450 -38.726490 693.777121 0.000000 0.000001 -12.874289 -304.992754 -12.145503 23.961876 2.431906 0.469610 -2.489399 -306.872340 -47.351164 43.108616 -0.000001 0.000003 -18.200203 238.455018 41.905704 84.436622 0.000001 0.000000 -16.279903 44.560332 7.956195 10.016178 -1.987996 -0.073495 -2.712999 -69.584280 -37.680542 -53.192858 -0.000002 -0.000000 -19.547804 -1294.554276 78.148730 -461.084324 -0.000002 -0.000002 -14.881195 1957.219230 168.080710 -518.484687
-18.819893 -51.561398 37.462910 4680.000595 18.171327 -0.000181 -0.779996 1.005805 5.403097 0.058165 2.914663 -0.582107 0.000004 0.000001 4.236801 -2.921774 -4.893438 -1.073045 0.000004 -0.000002 9.874400 5.133823 -24.345953 4.539456 0.000002 0.000004 2.173897 -0.193356 -2.564109 0.785360 2.681599 -0.377601 5.432499 -16.045154 7.367179 7.164032 5.161505 0.000000 0.000000 232.035241 -141.384943 169.315772 0.000005 0.000009 -10.869100 -311.292264 -10.933710 -344.964660 0.000003 0.000003 -13.344797 -75.797300 2.057134 -85.360487 -2.381899 -1.419597 6.136591 16.635885 9.451196 -8.019834 -4.550508 0.000001 0.000006 -1296.349469 -504.605633 -503.538375 -0.000002 -0.000011 -11.106510 675.694987 -37.383562 693.900556 0.000003 0.000006 -12.874290 -294.668895 -12.342855 60.185612 2.431900 0.469600 -2.489395 -306.881000 -47.490900 43.608589 0.000001 0.000004 -18.200199 238.005810 41.752414 84.856535 -0.000004 0.000000 -16.279907 44.752431 7.958491 10.233742 -1.988001 -0.073497 -2.712999 -70.420678 -37.694960 -53.698517 0.000003 -0.000010 -19.547802 -1292.757008 77.766656 -462.712094 -0.000002 -0.000000 -14.881203 1957.189505 168.103318 -518.808219
-18.799606 -51.489395 37.401306 4680.000158 18.303579 -0.000061 -0.780000 1.005796 5.403098 0.064794 2.970560 -0.648989 0.000002 -0.000007 4.236792 -2.889768 -4.741674 -0.973642 0.000001 0.000000 9.874408 5.174540 -23.548155 4.702578 -0.000001 -0.000002 2.173895 -0.286852 -2.488025 0.718070 2.681604 -0.377601 5.432505 -16.314259 7.428074 7.117128 5.161497 -0.000009 0.000007 232.172938 -141.898000 170.459720 0.000007 0.000001 -10.869101 -311.558287 -10.544002 -345.188335 -0.000000 -0.000000 -13.344808 -74.995757 1.736749 -85.116144 -2.381899 -1.419603 6.136599 17.173479 9.539682 -7.755927 -4.550507 -0.000001 0.000000 -1296.767039 -505.407224 -505.204231 -0.000002 -0.000013 -11.106506 676.257084 -36.489387 694.797551 0.000002 -0.000004 -12.874287 -291.885457 -9.997763 82.561209 2.431895 0.469599 -2.489403 -306.153859 -47.559516 44.416969 0.000002 0.000007 -18.200203 237.342243 41.473715 85.304999 0.000001 -0.000004 -16.279902 44.980744 7.907252 10.542278 -1.988002 -0.073501 -2.713007 -70.780916 -37.838596 -54.170189 -0.000000 -0.000001 -19.547802 -1291.816081 77.193924 -463.544558 -0.000001 -0.000003 -14.881197 1956.999352 168.102785 -519.303927
-18.779495 -51.416397 37.341705 4680.014146 18.286443 -0.224657 -0.779998 1.005805 5.403100 0.037104 3.194518 -0.406038 0.000006 -0.000004 4.236802 -2.813079 -4.585709 -0.941306 0.000005 -0.000002 9.874408 5.153708 -22.702953 4.824749 0.000006 0.000001 2.173898 -0.354478 -2.362102 0.840283 2.681599 -0.377600 5.432502 -16.574402 7.437315 6.988615 5.161501 -0.000003 -0.000008 231.656412 -142.456518 171.311431 0.000004 0.000010 -10.869093 -311.774175 -10.295968 -345.594403 0.000006 0.000000 -13.344804 -73.477795 1.724932 -84.607322 -2.381894 -1.419605 6.136600 17.512795 9.483818 -7.458188 -4.550503 0.000000 0.000002 -1297.154338 -506.058169 -506.836646 -0.000003 -0.000006 -11.106510 676.792243 -35.333603 695.522152 0.000003 -0.000006 -12.874296 -293.381569 -10.073767 82.468749 2.431900 0.469605 -2.489405 -305.523104 -47.385967 45.162030 0.000009 -0.000008 -18.200199 236.773535 41.201754 85.715589 -0.000002 0.000001 -16.279905 45.186834 7.831744 10.898099 -1.988001 -0.073495 -2.713001 -70.938666 -38.196894 -54.355386 0.000001 0.000003 -19.547802 -1290.911873 76.682985 -464.429586 0.000005 0.000003 -14.881200 1956.854661 168.112361 -519.785046
